# xmcd
#
# Track frame offsets:
#	150
#	18636
#	36162
#	54998
#	75767
#	94399
#	116892
#	140526
#	156313
#	176643
#	196335
#	216560
#	239035
#	260675
#	281199
#	307502
#
# Disc length: 4352 seconds
#
# Revision: 1
# Processed by: cddbd v1.5.2PL0 Copyright (c) Steve Scherf et al.
# Submitted via: audiograbber 1.83.01
#
DISCID=eb10fe10
DTITLE=WOW - 2007 - Gospel 2007 [CD1)
DYEAR=2005
DGENRE=Gospel
TTITLE0=Celebrate (He Lives) - Fred Hammond
TTITLE1=God Is Good - Deitrick Haddon
TTITLE2=You Don't Know - Kierra "KiKi" Sheard
TTITLE3=God Will Take Care - Ted and Sheri
TTITLE4=Hallelujah Praise - CeCe Winans
TTITLE5=Healed - Donald Lawrence and Co.
TTITLE6=Because Of Who You Are - Vickie Yohe
TTITLE7='Tis So Sweet - Shea Norman
TTITLE8=We Need A Word From The Lord - Vickie Winans
TTITLE9=In Your Name - John P. Kee
TTITLE10=Make Me Over - Tonéx and Peculiar People
TTITLE11=Take My Life - Bishop T.D. Jakes
TTITLE12=In The Presence Of A King - Donald Lawrence and The Tri-City Singers
TTITLE13=The Prayer - Donnie McClurkin (duet with Yolanda Adams)
TTITLE14=You Coverd Me - Hezekiah Walker (feat. Donald Lawrence)
TTITLE15=Sweet Spirit - 21:03
EXTD=
EXTT0=
EXTT1=
EXTT2=
EXTT3=
EXTT4=
EXTT5=
EXTT6=
EXTT7=
EXTT8=
EXTT9=
EXTT10=
EXTT11=
EXTT12=
EXTT13=
EXTT14=
EXTT15=
PLAYORDER=
